<svg version="1.1" id="Layer_1" xmlns="http://www.w3.org/2000/svg" xmlns:xlink="http://www.w3.org/1999/xlink" x="0px" y="0px"
	 width="100%" viewBox="0 0 736 560" enable-background="new 0 0 736 560" xml:space="preserve">
<path fill="#000000" opacity="1.000000" stroke="none" 
	d="
M380.279968,388.767151 
	C371.113464,384.681091 362.269257,380.802032 353.474457,376.814178 
	C351.714264,376.016052 349.328613,375.127625 349.892853,372.659821 
	C350.485596,370.067322 353.089661,370.658844 354.957428,370.716400 
	C368.109802,371.121979 381.109344,373.254669 394.206482,374.300537 
	C397.853333,374.591766 401.531982,374.926727 405.173126,374.755066 
	C412.612183,374.404327 416.809357,368.952667 414.725952,361.778351 
	C411.889160,352.009918 406.981049,343.033752 402.981262,333.709869 
	C400.947113,328.968048 398.734497,324.303009 396.675018,319.571747 
	C391.049500,306.647980 393.916870,291.790192 404.134216,281.852753 
	C417.268524,269.078339 430.522339,256.426788 443.725891,243.723602 
	C444.206024,243.261658 444.750946,242.856888 445.177673,242.351196 
	C447.812500,239.228714 451.714996,236.390961 450.059845,231.649033 
	C448.314423,226.648575 443.466064,225.929230 438.965881,225.396744 
	C426.578125,223.931015 414.168274,222.653046 401.772583,221.252792 
	C399.648010,221.012817 397.433105,220.780106 396.060699,218.474930 
	C397.382416,215.605698 400.293518,215.414261 402.731232,215.006714 
	C441.929291,208.453629 481.144501,202.002838 520.362488,195.569687 
	C524.172546,194.944702 528.571167,194.180649 530.706116,198.242630 
	C532.917908,202.450867 529.882690,205.844635 527.106140,208.816360 
	C502.889526,234.735428 478.733093,260.711548 454.378265,286.500244 
	C441.800812,299.818115 437.586731,315.026337 441.852997,332.900360 
	C447.332672,355.858246 452.396637,378.915375 457.615417,401.935272 
	C457.944458,403.386597 458.226471,404.882507 458.253479,406.362701 
	C458.408051,414.831207 452.851593,419.244720 444.873932,416.486633 
	C438.281616,414.207458 431.939575,411.192780 425.522278,408.421448 
	C410.543335,401.952698 395.585846,395.434204 380.279968,388.767151 
z"/>
<path fill="#000000" opacity="1.000000" stroke="none" 
	d="
M316.819824,168.154144 
	C340.653168,187.685974 364.240753,206.957458 387.754364,226.318771 
	C390.177185,228.313751 394.481903,230.439545 392.409790,234.009766 
	C390.649872,237.042007 386.236633,235.480301 383.128784,234.776581 
	C367.402863,231.215790 351.685211,227.628860 335.815857,224.751678 
	C334.018402,224.425797 332.193451,224.178101 330.371033,224.075806 
	C320.627472,223.528931 315.359558,227.556778 313.275452,237.038223 
	C311.584351,244.731903 311.864563,252.592407 311.411041,260.379150 
	C310.995239,267.518188 311.197968,274.693085 311.119934,281.852081 
	C311.107239,283.016754 311.198547,284.208588 310.985413,285.339539 
	C310.564301,287.573608 310.598999,290.697723 307.930267,291.043610 
	C304.925018,291.433167 304.639709,288.109833 304.128693,286.062897 
	C300.342499,270.897614 296.752167,255.683487 293.088776,240.487473 
	C285.571198,209.304153 278.037323,178.124741 270.550964,146.933945 
	C270.168091,145.338684 269.876160,143.621078 270.044464,142.013031 
	C270.531677,137.358521 273.469391,135.578796 277.760895,137.424957 
	C279.865234,138.330231 281.847046,139.674835 283.640808,141.122360 
	C294.650238,150.006775 305.589966,158.977463 316.819824,168.154144 
z"/>
<path fill="#000000" opacity="1.000000" stroke="none" 
	d="
M308.600006,369.736328 
	C276.014465,376.120728 243.839050,382.388458 211.663574,388.655853 
	C207.703064,389.427338 203.117859,390.666779 200.725021,386.554474 
	C198.130081,382.094849 201.971191,378.731964 204.754807,375.777771 
	C219.258804,360.384888 233.891205,345.113007 248.472580,329.792938 
	C259.379791,318.333191 270.275238,306.862213 281.181580,295.401581 
	C282.788818,293.712677 284.369019,291.991089 286.071075,290.401703 
	C287.276367,289.276184 288.699036,287.927612 290.464569,288.859802 
	C292.203339,289.777832 292.041779,291.630341 291.692383,293.315002 
	C289.364227,304.540161 286.992889,315.756439 284.695251,326.987793 
	C283.998108,330.395599 283.291473,333.768921 284.034607,337.348907 
	C285.713593,345.437103 290.916260,350.324646 299.203278,350.594147 
	C307.191315,350.853943 315.196899,350.798889 323.189362,350.628479 
	C329.539185,350.493073 332.028900,347.143982 330.151764,341.085999 
	C328.331726,335.212433 325.920380,329.524475 323.940216,323.696747 
	C323.326050,321.889160 322.224792,319.550140 324.125916,318.101501 
	C326.018097,316.659668 328.074280,318.185547 329.549683,319.402039 
	C339.438751,327.555603 349.558594,335.474579 358.936676,344.187469 
	C365.795288,350.559570 363.418335,358.076569 353.982788,360.450531 
	C343.347504,363.126312 332.509064,364.998199 321.751770,367.184296 
	C317.514557,368.045380 313.257935,368.810669 308.600006,369.736328 
z"/>
</svg>